<svg width="97" height="103" viewBox="0 0 97 103" fill="none" xmlns="http://www.w3.org/2000/svg">
<g filter="url(#filter0_d_16_302)">
<circle cx="48.5" cy="50.5" r="44.5" fill="white"/>
</g>
<g filter="url(#filter1_i_16_302)">
<path d="M32.4128 68C32.4128 65.64 32.6728 63.54 33.1928 61.7C33.7528 59.86 34.7128 58.2 36.0728 56.72C37.4328 55.24 39.3528 53.8 41.8328 52.4C44.0328 51.24 45.8728 50.26 47.3528 49.46C48.8328 48.66 49.9528 47.9 50.7128 47.18C51.5128 46.42 51.9128 45.54 51.9128 44.54C51.9128 43.34 51.4328 42.32 50.4728 41.48C49.5128 40.6 48.1528 40.16 46.3928 40.16C44.4728 40.16 42.8128 40.62 41.4128 41.54C40.0528 42.46 38.8728 43.52 37.8728 44.72L32.7728 38.84C33.4928 38.08 34.5728 37.26 36.0128 36.38C37.4528 35.5 39.1728 34.74 41.1728 34.1C43.1728 33.46 45.3728 33.14 47.7728 33.14C51.8528 33.14 55.0128 34.1 57.2528 36.02C59.5328 37.9 60.6728 40.34 60.6728 43.34C60.6728 45.22 60.2328 46.82 59.3528 48.14C58.5128 49.42 57.4528 50.52 56.1728 51.44C54.9328 52.32 53.7328 53.1 52.5728 53.78C50.0128 55.06 47.9928 56.18 46.5128 57.14C45.0728 58.1 43.9128 59.3 43.0328 60.74H61.3328V68H32.4128Z" fill="#F8F8F8"/>
</g>
<path d="M32.4128 68H31.4128V69H32.4128V68ZM33.1928 61.7L32.2361 61.4088L32.2332 61.4184L32.2305 61.428L33.1928 61.7ZM36.0728 56.72L36.8091 57.3966L36.0728 56.72ZM41.8328 52.4L41.3664 51.5154L41.3537 51.5221L41.3412 51.5292L41.8328 52.4ZM50.7128 47.18L51.4006 47.906L51.4016 47.905L50.7128 47.18ZM50.4728 41.48L49.7971 42.2172L49.8056 42.225L49.8143 42.2326L50.4728 41.48ZM41.4128 41.54L40.8636 40.7042L40.8525 40.7117L41.4128 41.54ZM37.8728 44.72L37.1174 45.3752L37.8881 46.2638L38.641 45.3602L37.8728 44.72ZM32.7728 38.84L32.0469 38.1523L31.4234 38.8104L32.0174 39.4952L32.7728 38.84ZM36.0128 36.38L36.5343 37.2333L36.0128 36.38ZM41.1728 34.1L41.4776 35.0524H41.4776L41.1728 34.1ZM57.2528 36.02L56.602 36.7793L56.6093 36.7855L56.6166 36.7915L57.2528 36.02ZM59.3528 48.14L58.5207 47.5853L58.5168 47.5913L59.3528 48.14ZM56.1728 51.44L56.7516 52.2555L56.7564 52.252L56.1728 51.44ZM52.5728 53.78L53.02 54.6744L53.0498 54.6595L53.0785 54.6427L52.5728 53.78ZM46.5128 57.14L45.9686 56.301L45.9581 56.3079L46.5128 57.14ZM43.0328 60.74L42.1795 60.2185L41.2498 61.74H43.0328V60.74ZM61.3328 60.74H62.3328V59.74H61.3328V60.74ZM61.3328 68V69H62.3328V68H61.3328ZM33.4128 68C33.4128 65.7114 33.6652 63.7056 34.1551 61.972L32.2305 61.428C31.6805 63.3744 31.4128 65.5686 31.4128 68H33.4128ZM34.1495 61.9912C34.6639 60.301 35.5459 58.7714 36.8091 57.3966L35.3365 56.0434C33.8798 57.6286 32.8418 59.419 32.2361 61.4088L34.1495 61.9912ZM36.8091 57.3966C38.0755 56.0185 39.9008 54.639 42.3244 53.2708L41.3412 51.5292C38.8048 52.961 36.7901 54.4615 35.3365 56.0434L36.8091 57.3966ZM42.2992 53.2846C44.501 52.1236 46.3442 51.1419 47.8283 50.3397L46.8773 48.5803C45.4014 49.3781 43.5646 50.3564 41.3664 51.5154L42.2992 53.2846ZM47.8283 50.3397C49.3449 49.5199 50.5503 48.7114 51.4006 47.906L50.0251 46.454C49.3553 47.0886 48.3207 47.8 46.8773 48.5803L47.8283 50.3397ZM51.4016 47.905C52.3775 46.9778 52.9128 45.844 52.9128 44.54H50.9128C50.9128 45.236 50.6481 45.8622 50.0241 46.455L51.4016 47.905ZM52.9128 44.54C52.9128 43.0317 52.2928 41.7437 51.1313 40.7274L49.8143 42.2326C50.5728 42.8963 50.9128 43.6483 50.9128 44.54H52.9128ZM51.1485 40.7428C49.9475 39.6419 48.3138 39.16 46.3928 39.16V41.16C47.9919 41.16 49.0782 41.5581 49.7971 42.2172L51.1485 40.7428ZM46.3928 39.16C44.3069 39.16 42.4496 39.6621 40.8636 40.7043L41.962 42.3757C43.176 41.5779 44.6387 41.16 46.3928 41.16V39.16ZM40.8525 40.7117C39.4187 41.6816 38.1677 42.8041 37.1046 44.0798L38.641 45.3602C39.5779 44.2359 40.6869 43.2384 41.9731 42.3683L40.8525 40.7117ZM38.6282 44.0648L33.5282 38.1848L32.0174 39.4952L37.1174 45.3752L38.6282 44.0648ZM33.4988 39.5277C34.1328 38.8585 35.1296 38.0917 36.5343 37.2333L35.4914 35.5267C34.016 36.4283 32.8528 37.3015 32.0469 38.1523L33.4988 39.5277ZM36.5343 37.2333C37.8921 36.4035 39.5359 35.6738 41.4776 35.0524L40.868 33.1476C38.8097 33.8062 37.0135 34.5965 35.4914 35.5267L36.5343 37.2333ZM41.4776 35.0524C43.3661 34.4481 45.4617 34.14 47.7728 34.14V32.14C45.2839 32.14 42.9795 32.4719 40.868 33.1476L41.4776 35.0524ZM47.7728 34.14C51.7052 34.14 54.6022 35.0651 56.602 36.7793L57.9036 35.2607C55.4235 33.1349 52.0004 32.14 47.7728 32.14V34.14ZM56.6166 36.7915C58.6622 38.4783 59.6728 40.6333 59.6728 43.34H61.6728C61.6728 40.0467 60.4034 37.3217 57.889 35.2485L56.6166 36.7915ZM59.6728 43.34C59.6728 45.0598 59.2723 46.458 58.5208 47.5853L60.1849 48.6947C61.1933 47.182 61.6728 45.3802 61.6728 43.34H59.6728ZM58.5168 47.5913C57.746 48.7658 56.7726 49.7774 55.5892 50.628L56.7564 52.252C58.133 51.2626 59.2796 50.0742 60.1889 48.6887L58.5168 47.5913ZM55.5941 50.6245C54.3747 51.4898 53.1991 52.2537 52.0671 52.9173L53.0785 54.6427C54.2665 53.9463 55.4909 53.1502 56.7516 52.2555L55.5941 50.6245ZM52.1256 52.8856C49.55 54.1734 47.493 55.3123 45.9686 56.301L47.057 57.979C48.4926 57.0477 50.4756 55.9466 53.02 54.6744L52.1256 52.8856ZM45.9581 56.3079C44.4004 57.3464 43.1373 58.6513 42.1795 60.2185L43.8861 61.2615C44.6884 59.9487 45.7452 58.8536 47.0675 57.972L45.9581 56.3079ZM43.0328 61.74H61.3328V59.74H43.0328V61.74ZM60.3328 60.74V68H62.3328V60.74H60.3328ZM61.3328 67H32.4128V69H61.3328V67Z" fill="#AAAAAA"/>
<defs>
<filter id="filter0_d_16_302" x="0" y="6" width="97" height="97" filterUnits="userSpaceOnUse" color-interpolation-filters="sRGB">
<feFlood flood-opacity="0" result="BackgroundImageFix"/>
<feColorMatrix in="SourceAlpha" type="matrix" values="0 0 0 0 0 0 0 0 0 0 0 0 0 0 0 0 0 0 127 0" result="hardAlpha"/>
<feOffset dy="4"/>
<feGaussianBlur stdDeviation="2"/>
<feComposite in2="hardAlpha" operator="out"/>
<feColorMatrix type="matrix" values="0 0 0 0 0 0 0 0 0 0 0 0 0 0 0 0 0 0 0.25 0"/>
<feBlend mode="normal" in2="BackgroundImageFix" result="effect1_dropShadow_16_302"/>
<feBlend mode="normal" in="SourceGraphic" in2="effect1_dropShadow_16_302" result="shape"/>
</filter>
<filter id="filter1_i_16_302" x="32.4128" y="33.14" width="28.9199" height="38.86" filterUnits="userSpaceOnUse" color-interpolation-filters="sRGB">
<feFlood flood-opacity="0" result="BackgroundImageFix"/>
<feBlend mode="normal" in="SourceGraphic" in2="BackgroundImageFix" result="shape"/>
<feColorMatrix in="SourceAlpha" type="matrix" values="0 0 0 0 0 0 0 0 0 0 0 0 0 0 0 0 0 0 127 0" result="hardAlpha"/>
<feOffset dy="4"/>
<feGaussianBlur stdDeviation="2"/>
<feComposite in2="hardAlpha" operator="arithmetic" k2="-1" k3="1"/>
<feColorMatrix type="matrix" values="0 0 0 0 0 0 0 0 0 0 0 0 0 0 0 0 0 0 0.25 0"/>
<feBlend mode="normal" in2="shape" result="effect1_innerShadow_16_302"/>
</filter>
</defs>
</svg>
