<svg width="160" height="160" viewBox="0 0 160 160" fill="none" xmlns="http://www.w3.org/2000/svg">
<g filter="url(#filter0_i_60_219)">
<rect width="160" height="160" rx="80" fill="#EB5E6C"/>
</g>
<g filter="url(#filter1_d_60_219)">
<path d="M79.9994 53.3347C65.2723 53.3347 53.3331 65.2738 53.3331 80.001C53.3331 94.7282 65.2723 106.667 79.9994 106.667C94.7266 106.667 106.666 94.7282 106.666 80.001C106.649 65.2812 94.7193 53.3518 79.9994 53.3347ZM68.4997 59.723C67.4906 62.5786 66.6972 65.5058 66.1259 68.4794C63.5014 69.1621 60.9307 70.0394 58.4364 71.1046C60.4359 66.2992 63.9759 62.2962 68.4997 59.723ZM57.1278 75.3893C59.8329 74.0457 62.6518 72.9446 65.5514 72.0975C65.282 74.1669 65.1193 76.2486 65.0631 78.3344H56.7511C56.8137 77.3432 56.9398 76.356 57.1295 75.3811L57.1278 75.3893ZM56.7511 81.6676H65.0631C65.1193 83.7566 65.2828 85.8408 65.553 87.9127C62.6535 87.0655 59.8353 85.9645 57.1295 84.6209C56.9398 83.646 56.8137 82.6588 56.7511 81.6676ZM58.438 88.8974C60.9331 89.9618 63.5031 90.8391 66.1284 91.5227C66.698 94.4962 67.4906 97.4234 68.4997 100.279C63.9767 97.7058 60.4367 93.702 58.438 88.8974ZM78.3328 103.249C76.4529 103.121 74.595 102.764 72.8014 102.186C71.4709 99.0022 70.4325 95.7047 69.6976 92.334C72.5467 92.8735 75.4341 93.1885 78.3328 93.2739V103.249ZM78.3328 89.939C75.2029 89.8389 72.0886 89.454 69.0279 88.7891C68.6698 86.4308 68.4591 84.0521 68.3964 81.6676H78.3328V89.939ZM78.3328 78.3344H68.3964C68.4591 75.95 68.6698 73.5712 69.0279 71.2129C72.0886 70.548 75.2029 70.1631 78.3328 70.063V78.3344ZM78.3328 66.7297C75.4341 66.8143 72.5467 67.1277 69.6976 67.668C70.4325 64.2973 71.4709 60.9998 72.8014 57.8163C74.595 57.2385 76.4529 56.8812 78.3328 56.7526V66.7297ZM103.248 78.3344H94.9374C94.8771 76.2445 94.7103 74.1588 94.4377 72.0861C97.3413 72.9332 100.164 74.0359 102.873 75.3811C103.061 76.356 103.187 77.3432 103.248 78.3344ZM101.561 71.1063C99.0584 70.037 96.4795 69.1572 93.8461 68.4745C93.2642 65.4879 92.4586 62.5485 91.434 59.6831C95.9888 62.2555 99.5524 66.2764 101.561 71.1063ZM81.6661 56.7526C83.5199 56.878 85.3525 57.2254 87.1225 57.7894C88.4734 60.9795 89.5297 64.2859 90.2792 67.668C87.4375 67.1285 84.5575 66.8152 81.6661 66.7297V56.7526ZM81.6661 70.063C84.7918 70.1623 87.9021 70.5464 90.9579 71.2113C91.3201 73.5696 91.5365 75.9491 91.6041 78.3344H81.6661V70.063ZM87.2226 102.176C85.4217 102.759 83.5549 103.12 81.6661 103.249V93.2739C84.5705 93.1893 87.4635 92.8735 90.3175 92.3307C89.5859 95.699 88.5499 98.9941 87.2226 102.176ZM81.6661 89.939V81.6676H91.6106C91.5504 84.0512 91.3412 86.4283 90.984 88.7859C87.92 89.454 84.8008 89.8397 81.6661 89.939ZM91.5243 100.263C92.531 97.4112 93.3212 94.4881 93.8892 91.5178C96.5063 90.835 99.0682 89.9594 101.556 88.8974C99.5629 93.6922 96.0343 97.6896 91.5243 100.263ZM102.869 84.6209C100.168 85.962 97.3551 87.0623 94.4613 87.9094C94.729 85.8383 94.8893 83.755 94.9422 81.6676H103.248C103.185 82.6588 103.059 83.646 102.869 84.6209Z" fill="#00FFBB"/>
<path d="M100.222 125.738C101.263 125.279 102.309 124.772 103.324 124.238L101.767 121.292C100.819 121.792 99.8459 122.263 98.8726 122.696L100.222 125.738Z" fill="#181428"/>
<path d="M89.7094 125.657C88.6645 125.875 87.5992 126.064 86.5421 126.212L87.0043 129.512C88.1355 129.353 89.2773 129.154 90.397 128.919L89.7094 125.657Z" fill="#181428"/>
<path d="M76.9075 126.565C75.8407 126.495 74.764 126.389 73.7061 126.247L73.2626 129.55C74.3962 129.702 75.5493 129.819 76.6894 129.894L76.9075 126.565Z" fill="#181428"/>
<path d="M34.4531 59.3348L37.4902 60.715C37.9313 59.7392 38.413 58.77 38.92 57.8317L35.9879 56.2465C35.4451 57.258 34.93 58.298 34.4531 59.3348Z" fill="#181428"/>
<path d="M63.2264 127.119L64.3445 123.977C63.3444 123.622 62.3451 123.224 61.3449 122.792L60.0111 125.848C61.0747 126.309 62.1546 126.735 63.2264 127.119Z" fill="#181428"/>
<path d="M33.9632 99.5426L37.032 98.2389C36.6112 97.2526 36.2231 96.2394 35.878 95.2393L32.7286 96.3257C33.0981 97.4023 33.5131 98.4838 33.9632 99.5426Z" fill="#181428"/>
<path d="M30.39 86.2746L33.6964 85.8612C33.5654 84.804 33.4686 83.7258 33.4084 82.6581L30.0751 82.8428C30.1434 83.9894 30.2484 85.1426 30.39 86.2746Z" fill="#181428"/>
<path d="M30.5548 72.5312L33.8515 73.0308C34.0094 71.9778 34.2063 70.9125 34.4382 69.8644L31.1831 69.1393C30.9365 70.2591 30.7249 71.4008 30.5548 72.5312Z" fill="#181428"/>
<path d="M56.6663 116.667C56.6663 109.303 50.6971 103.334 43.3331 103.334C35.9692 103.334 30 109.303 30 116.667C30 124.031 35.9692 130 43.3331 130C50.6931 129.992 56.6581 124.027 56.6663 116.667ZM43.3331 126.667C37.8108 126.667 33.3333 122.189 33.3333 116.667C33.3333 111.145 37.8108 106.667 43.3331 106.667C48.8555 106.667 53.333 111.145 53.333 116.667C53.3273 122.188 48.8539 126.661 43.3331 126.667Z" fill="#181428"/>
<path d="M129.999 43.3347C130.002 37.2801 125.923 31.984 120.068 30.4418C114.213 28.8989 108.054 31.4989 105.074 36.7699C85.0856 25.1457 59.732 28.7654 43.7947 45.5181C43.1136 46.2334 42.4528 46.9699 41.8115 47.7259L44.3587 49.8776C44.9552 49.172 45.5712 48.486 46.2084 47.8179L45 46.668L46.2068 47.8163C61.2017 32.0564 85.1044 28.7646 103.8 39.8851C102.546 44.4846 103.852 49.4048 107.224 52.7763C110.596 56.1479 115.516 57.4548 120.115 56.1999C131.237 74.8968 127.944 98.7994 112.182 113.794C111.409 114.532 110.599 115.25 109.779 115.931L111.907 118.5C112.785 117.771 113.652 117.001 114.482 116.209C131.236 100.272 134.855 74.9155 123.229 54.928C127.408 52.5647 129.994 48.1361 129.999 43.3347ZM116.666 53.3346C111.143 53.3346 106.666 48.8571 106.666 43.3347C106.666 37.8123 111.143 33.3349 116.666 33.3349C122.188 33.3349 126.665 37.8123 126.665 43.3347C126.66 48.8555 122.186 53.3289 116.666 53.3346Z" fill="#0B334D"/>
<path d="M44.3415 113.334H44.9999C45.9203 113.334 46.6665 112.588 46.6665 111.667C46.6665 110.747 45.9203 110 44.9999 110H44.3415C40.6599 110 37.6749 112.985 37.6749 116.667C37.6749 120.349 40.6599 123.334 44.3415 123.334H44.9999C45.9203 123.334 46.6665 122.587 46.6665 121.667C46.6665 120.747 45.9203 120 44.9999 120H44.3415C43.2266 120 42.1866 119.443 41.5681 118.515C41.5315 118.459 41.5168 118.392 41.4835 118.334H44.9999C45.9203 118.334 46.6665 117.587 46.6665 116.667C46.6665 115.747 45.9203 115 44.9999 115H41.4835C41.5168 114.942 41.5315 114.875 41.5681 114.819C42.1866 113.891 43.2266 113.334 44.3415 113.334Z" fill="#00FFBB"/>
<path d="M119.254 42.765L115.568 40.9315C115.219 40.7574 114.999 40.4001 114.999 40.0095C114.999 39.6189 115.219 39.2624 115.568 39.0883C116.26 38.7449 117.072 38.7449 117.764 39.0883L119.256 39.8345C120.079 40.2463 121.08 39.9118 121.492 39.0883C121.904 38.2639 121.569 37.263 120.746 36.8512L119.245 36.1066C117.618 35.2993 115.707 35.2993 114.079 36.1066C112.601 36.8463 111.668 38.3567 111.668 40.0095C111.668 41.6623 112.601 43.1735 114.079 43.9133L117.764 45.7459C118.113 45.9209 118.334 46.2773 118.334 46.6679C118.334 47.0586 118.113 47.415 117.764 47.59C117.072 47.9326 116.26 47.9326 115.568 47.59L114.077 46.8429C113.253 46.4311 112.252 46.7656 111.84 47.59C111.429 48.4135 111.763 49.4145 112.587 49.8263L114.087 50.5709C115.715 51.3773 117.626 51.3773 119.254 50.5709C120.732 49.8311 121.664 48.3207 121.664 46.6679C121.664 45.0151 120.732 43.5047 119.254 42.765Z" fill="#00FFBB"/>
</g>
<defs>
<filter id="filter0_i_60_219" x="0" y="0" width="160" height="164" filterUnits="userSpaceOnUse" color-interpolation-filters="sRGB">
<feFlood flood-opacity="0" result="BackgroundImageFix"/>
<feBlend mode="normal" in="SourceGraphic" in2="BackgroundImageFix" result="shape"/>
<feColorMatrix in="SourceAlpha" type="matrix" values="0 0 0 0 0 0 0 0 0 0 0 0 0 0 0 0 0 0 127 0" result="hardAlpha"/>
<feOffset dy="4"/>
<feGaussianBlur stdDeviation="2"/>
<feComposite in2="hardAlpha" operator="arithmetic" k2="-1" k3="1"/>
<feColorMatrix type="matrix" values="0 0 0 0 0 0 0 0 0 0 0 0 0 0 0 0 0 0 0.25 0"/>
<feBlend mode="normal" in2="shape" result="effect1_innerShadow_60_219"/>
</filter>
<filter id="filter1_d_60_219" x="26" y="30" width="108" height="108" filterUnits="userSpaceOnUse" color-interpolation-filters="sRGB">
<feFlood flood-opacity="0" result="BackgroundImageFix"/>
<feColorMatrix in="SourceAlpha" type="matrix" values="0 0 0 0 0 0 0 0 0 0 0 0 0 0 0 0 0 0 127 0" result="hardAlpha"/>
<feOffset dy="4"/>
<feGaussianBlur stdDeviation="2"/>
<feComposite in2="hardAlpha" operator="out"/>
<feColorMatrix type="matrix" values="0 0 0 0 0 0 0 0 0 0 0 0 0 0 0 0 0 0 0.25 0"/>
<feBlend mode="normal" in2="BackgroundImageFix" result="effect1_dropShadow_60_219"/>
<feBlend mode="normal" in="SourceGraphic" in2="effect1_dropShadow_60_219" result="shape"/>
</filter>
</defs>
</svg>
