<svg width="160" height="160" viewBox="0 0 160 160" fill="none" xmlns="http://www.w3.org/2000/svg">
<g filter="url(#filter0_i_60_218)">
<rect width="160" height="160" rx="80" fill="#EB5E6C"/>
</g>
<g filter="url(#filter1_d_60_218)">
<path d="M123.333 52.2487H101.322C104.188 49.7065 106 45.9993 106 41.8755C106 30.2908 92.5777 23.8545 83.5453 30.9878C82.7939 31.581 82.6659 32.6711 83.2593 33.4223C83.853 34.1739 84.943 34.3015 85.6938 33.7083C92.4542 28.3696 102.533 33.1746 102.533 41.8755C102.533 47.3721 98.2466 51.8834 92.841 52.2487H81.7333V41.8753C81.7333 34.2291 75.5128 28.0086 67.8667 28.0086C60.2205 28.0086 54 34.2291 54 41.8753C54 45.9993 55.8116 49.7063 58.6785 52.2484H36.6667C31.8879 52.2484 28 56.1363 28 60.9151V69.8498C28 74.1868 31.2025 77.7895 35.3667 78.4187V123.369C35.3667 128.147 39.2545 132.035 44.0333 132.035H115.967C120.745 132.035 124.633 128.147 124.633 123.369V86.0753C124.633 85.1181 123.857 84.342 122.9 84.342C121.943 84.342 121.167 85.1181 121.167 86.0753V123.369C121.167 126.236 118.834 128.569 115.967 128.569H73.9333V78.5167H86.0667V122.331C86.0667 123.288 86.8428 124.064 87.8 124.064C88.7572 124.064 89.5333 123.288 89.5333 122.331V78.5167H108.817C109.774 78.5167 110.55 77.7406 110.55 76.7833C110.55 75.8261 109.774 75.05 108.817 75.05H97.3333V55.7153H123.333C126.2 55.7153 128.533 58.048 128.533 60.9153V69.85C128.533 72.7174 126.2 75.05 123.333 75.05H119.975C119.018 75.05 118.242 75.8261 118.242 76.7833C118.242 77.7406 119.018 78.5167 119.975 78.5167H123.333C128.112 78.5167 132 74.6288 132 69.85V60.9153C132 56.1365 128.112 52.2487 123.333 52.2487ZM57.4667 41.8753C57.4667 36.1408 62.1319 31.4753 67.8667 31.4753C73.6014 31.4753 78.2667 36.1408 78.2667 41.8753V52.2484H67.159C61.7536 51.8834 57.4667 47.3719 57.4667 41.8753ZM70.4667 128.569H44.0333C41.1662 128.569 38.8333 126.236 38.8333 123.369V78.5167H70.4667V128.569ZM93.8667 75.05H36.6667C33.7995 75.05 31.4667 72.7174 31.4667 69.85V60.9153C31.4667 58.048 33.7995 55.7153 36.6667 55.7153H62.6667V69.6089C62.6667 70.5661 63.4428 71.3422 64.4 71.3422C65.3572 71.3422 66.1333 70.5661 66.1333 69.6089V55.7153H93.8667V75.05Z" fill="#0B334D"/>
<path d="M123.333 52.2487H101.322C104.188 49.7065 106 45.9993 106 41.8755C106 30.2908 92.5777 23.8545 83.5453 30.9878C82.7939 31.581 82.6659 32.6711 83.2593 33.4223C83.853 34.1739 84.943 34.3015 85.6938 33.7083C92.4542 28.3696 102.533 33.1746 102.533 41.8755C102.533 47.3721 98.2466 51.8834 92.841 52.2487H81.7333V41.8753C81.7333 34.2291 75.5128 28.0086 67.8667 28.0086C60.2205 28.0086 54 34.2291 54 41.8753C54 45.9993 55.8116 49.7063 58.6785 52.2484H36.6667C31.8879 52.2484 28 56.1363 28 60.9151V69.8498C28 74.1868 31.2025 77.7895 35.3667 78.4187V123.369C35.3667 128.147 39.2545 132.035 44.0333 132.035H115.967C120.745 132.035 124.633 128.147 124.633 123.369V86.0753C124.633 85.1181 123.857 84.342 122.9 84.342C121.943 84.342 121.167 85.1181 121.167 86.0753V123.369C121.167 126.236 118.834 128.569 115.967 128.569H73.9333V78.5167H86.0667V122.331C86.0667 123.288 86.8428 124.064 87.8 124.064C88.7572 124.064 89.5333 123.288 89.5333 122.331V78.5167H108.817C109.774 78.5167 110.55 77.7406 110.55 76.7833C110.55 75.8261 109.774 75.05 108.817 75.05H97.3333V55.7153H123.333C126.2 55.7153 128.533 58.048 128.533 60.9153V69.85C128.533 72.7174 126.2 75.05 123.333 75.05H119.975C119.018 75.05 118.242 75.8261 118.242 76.7833C118.242 77.7406 119.018 78.5167 119.975 78.5167H123.333C128.112 78.5167 132 74.6288 132 69.85V60.9153C132 56.1365 128.112 52.2487 123.333 52.2487ZM57.4667 41.8753C57.4667 36.1408 62.1319 31.4753 67.8667 31.4753C73.6014 31.4753 78.2667 36.1408 78.2667 41.8753V52.2484H67.159C61.7536 51.8834 57.4667 47.3719 57.4667 41.8753ZM70.4667 128.569H44.0333C41.1662 128.569 38.8333 126.236 38.8333 123.369V78.5167H70.4667V128.569ZM93.8667 75.05H36.6667C33.7995 75.05 31.4667 72.7174 31.4667 69.85V60.9153C31.4667 58.048 33.7995 55.7153 36.6667 55.7153H62.6667V69.6089C62.6667 70.5661 63.4428 71.3422 64.4 71.3422C65.3572 71.3422 66.1333 70.5661 66.1333 69.6089V55.7153H93.8667V75.05Z" stroke="#0B334D" stroke-width="3"/>
</g>
<defs>
<filter id="filter0_i_60_218" x="0" y="0" width="160" height="164" filterUnits="userSpaceOnUse" color-interpolation-filters="sRGB">
<feFlood flood-opacity="0" result="BackgroundImageFix"/>
<feBlend mode="normal" in="SourceGraphic" in2="BackgroundImageFix" result="shape"/>
<feColorMatrix in="SourceAlpha" type="matrix" values="0 0 0 0 0 0 0 0 0 0 0 0 0 0 0 0 0 0 127 0" result="hardAlpha"/>
<feOffset dy="4"/>
<feGaussianBlur stdDeviation="2"/>
<feComposite in2="hardAlpha" operator="arithmetic" k2="-1" k3="1"/>
<feColorMatrix type="matrix" values="0 0 0 0 0 0 0 0 0 0 0 0 0 0 0 0 0 0 0.25 0"/>
<feBlend mode="normal" in2="shape" result="effect1_innerShadow_60_218"/>
</filter>
<filter id="filter1_d_60_218" x="22.5" y="26.4978" width="115" height="115.037" filterUnits="userSpaceOnUse" color-interpolation-filters="sRGB">
<feFlood flood-opacity="0" result="BackgroundImageFix"/>
<feColorMatrix in="SourceAlpha" type="matrix" values="0 0 0 0 0 0 0 0 0 0 0 0 0 0 0 0 0 0 127 0" result="hardAlpha"/>
<feOffset dy="4"/>
<feGaussianBlur stdDeviation="2"/>
<feComposite in2="hardAlpha" operator="out"/>
<feColorMatrix type="matrix" values="0 0 0 0 0 0 0 0 0 0 0 0 0 0 0 0 0 0 0.25 0"/>
<feBlend mode="normal" in2="BackgroundImageFix" result="effect1_dropShadow_60_218"/>
<feBlend mode="normal" in="SourceGraphic" in2="effect1_dropShadow_60_218" result="shape"/>
</filter>
</defs>
</svg>
