<svg width="98" height="88" viewBox="0 0 98 88" fill="none" xmlns="http://www.w3.org/2000/svg">
<g opacity="0.5" filter="url(#filter0_di_44_312)">
<path d="M6.63672 21.0938C5.17966 21.0938 4 19.9141 4 18.457V2.63672C4 1.17966 5.17966 0 6.63672 0H22.6328C24.0899 0 25.2695 1.17966 25.2695 2.63672C25.2695 4.09378 24.0899 5.27344 22.6328 5.27344H9.27344V18.457C9.27344 19.9141 8.09378 21.0938 6.63672 21.0938Z" fill="#68544F"/>
<path d="M91.3633 21.0938C89.9062 21.0938 88.7266 19.9141 88.7266 18.457V5.27344H75.3672C73.9101 5.27344 72.7305 4.09378 72.7305 2.63672C72.7305 1.17966 73.9101 0 75.3672 0H91.3633C92.8203 0 94 1.17966 94 2.63672V18.457C94 19.9141 92.8203 21.0938 91.3633 21.0938Z" fill="#53433F"/>
<path d="M22.6328 79.1016H6.63672C5.17966 79.1016 4 77.9219 4 76.4648V60.6445C4 59.1875 5.17966 58.0078 6.63672 58.0078C8.09378 58.0078 9.27344 59.1875 9.27344 60.6445V73.8281H22.6328C24.0899 73.8281 25.2695 75.0078 25.2695 76.4648C25.2695 77.9219 24.0899 79.1016 22.6328 79.1016Z" fill="#68544F"/>
<path d="M91.3633 79.1016H75.3672C73.9101 79.1016 72.7305 77.9219 72.7305 76.4648C72.7305 75.0078 73.9101 73.8281 75.3672 73.8281H88.7266V60.6445C88.7266 59.1875 89.9062 58.0078 91.3633 58.0078C92.8203 58.0078 94 59.1875 94 60.6445V76.4648C94 77.9219 92.8203 79.1016 91.3633 79.1016Z" fill="#53433F"/>
<path d="M33.1797 79.1016C31.7226 79.1016 30.543 77.9219 30.543 76.4648V71.1914C30.543 69.7343 31.7226 68.5547 33.1797 68.5547C34.6367 68.5547 35.8164 69.7343 35.8164 71.1914V76.4648C35.8164 77.9219 34.6367 79.1016 33.1797 79.1016Z" fill="#EB5E6C"/>
<path d="M62.553 20.4085C61.4454 21.4103 59.8105 21.3046 58.8087 20.197C56.3299 17.4023 52.7443 15.8203 49 15.8203C41.7229 15.8203 35.8164 21.7268 35.8164 29.0039V60.6445C35.8164 62.1208 34.6567 63.2812 33.1797 63.2812C31.7027 63.2812 30.543 62.1208 30.543 60.6445V29.0039C30.543 18.8264 38.8225 10.5469 49 10.5469C54.2206 10.5469 59.2832 12.8142 62.7638 16.7164C63.7127 17.7718 63.6606 19.4588 62.553 20.4085Z" fill="#EB5E6C"/>
<path d="M64.8203 79.1016C63.3633 79.1016 62.1836 77.9219 62.1836 76.4648V29.0039C62.1836 27.5468 63.3633 26.3672 64.8203 26.3672C66.2774 26.3672 67.457 27.5468 67.457 29.0039V76.4648C67.457 77.9219 66.2774 79.1016 64.8203 79.1016Z" fill="#EB5E6C"/>
<path d="M22.6328 68.5547C21.1758 68.5547 19.9961 67.375 19.9961 65.918V34.2773C19.9961 32.8203 21.1758 31.6406 22.6328 31.6406C24.0899 31.6406 25.2695 32.8203 25.2695 34.2773V65.918C25.2695 67.375 24.0899 68.5547 22.6328 68.5547Z" fill="#EB5E6C"/>
<path d="M54.7479 3.11119C54.59 4.58817 53.3245 5.64285 51.8475 5.43137C50.8986 5.32631 49.949 5.27344 49 5.27344C37.7679 5.27344 27.9591 13.2365 25.744 24.2578C25.4804 25.5233 24.3735 26.3672 23.1602 26.3672C23.0022 26.3672 22.7914 26.3672 22.6328 26.3143C21.2087 26.0506 20.3127 24.6272 20.5763 23.2031C23.3181 9.75586 35.2362 0 49 0C50.1598 0 51.3202 0.0528717 52.4806 0.2108C53.904 0.369415 54.9587 1.68777 54.7479 3.11119Z" fill="#EB5E6C"/>
<path d="M75.3672 36.914C73.9102 36.914 72.7305 35.7344 72.7305 34.2773V29.0039C72.7305 20.6048 68.2193 12.7462 60.9552 8.49995C59.6987 7.76593 59.2764 6.14887 60.0104 4.89231C60.7417 3.63301 62.3539 3.20866 63.6181 3.94749C72.4909 9.13578 78.004 18.7378 78.004 29.0039V34.2773C78.004 35.7344 76.8243 36.914 75.3672 36.914Z" fill="#EB5E6C"/>
<path d="M75.3672 68.5547C73.9101 68.5547 72.7305 67.375 72.7305 65.918V44.8242C72.7305 43.3672 73.9101 42.1875 75.3672 42.1875C76.8242 42.1875 78.0039 43.3672 78.0039 44.8242V65.918C78.0039 67.375 76.8242 68.5547 75.3672 68.5547Z" fill="#EB5E6C"/>
<path d="M43.7266 79.1016C42.2695 79.1016 41.0898 77.9219 41.0898 76.4648V55.3711C41.0898 53.914 42.2695 52.7344 43.7266 52.7344C45.1836 52.7344 46.3633 53.914 46.3633 55.3711V76.4648C46.3633 77.9219 45.1836 79.1016 43.7266 79.1016Z" fill="#EB5E6C"/>
<path d="M56.9102 34.2773V76.4648C56.9102 77.9411 55.7504 79.1016 54.2734 79.1016C52.7965 79.1016 51.6367 77.9411 51.6367 76.4648V34.2773C51.6367 32.8004 50.477 31.6406 49 31.6406C47.523 31.6406 46.3633 32.8004 46.3633 34.2773V44.8242C46.3633 46.3005 45.2035 47.4609 43.7266 47.4609C42.2496 47.4609 41.0898 46.3005 41.0898 44.8242V34.2773C41.0898 29.9 44.6226 26.3672 49 26.3672C53.3774 26.3672 56.9102 29.9 56.9102 34.2773Z" fill="#EB5E6C"/>
<path d="M51.8475 5.43137C50.8986 5.32631 49.9489 5.27344 49 5.27344V0C50.1597 0 51.3202 0.0528717 52.4806 0.2108C53.904 0.369415 54.9587 1.68777 54.7479 3.11119C54.59 4.58817 53.3245 5.64285 51.8475 5.43137Z" fill="#EB5E6C"/>
<path d="M56.9102 34.2773V76.4648C56.9102 77.9411 55.7504 79.1016 54.2734 79.1016C52.7965 79.1016 51.6367 77.9411 51.6367 76.4648V34.2773C51.6367 32.8004 50.477 31.6406 49 31.6406V26.3672C53.3774 26.3672 56.9102 29.9 56.9102 34.2773Z" fill="#EB5E6C"/>
<path d="M62.553 20.4085C61.4454 21.4103 59.8105 21.3046 58.8087 20.197C56.3299 17.4023 52.7443 15.8203 49 15.8203V10.5469C54.2206 10.5469 59.2832 12.8142 62.7638 16.7164C63.7128 17.7718 63.6606 19.4588 62.553 20.4085Z" fill="#EB5E6C"/>
<path d="M94 44.8242C94 46.3005 92.8403 47.4609 91.3633 47.4609H6.63672C5.15974 47.4609 4 46.3005 4 44.8242C4 43.3472 5.15974 42.1875 6.63672 42.1875H91.3633C92.8403 42.1875 94 43.3472 94 44.8242Z" fill="#FC031C"/>
<path d="M94 44.8242C94 46.3005 92.8403 47.4609 91.3633 47.4609H49V42.1875H91.3633C92.8403 42.1875 94 43.3472 94 44.8242Z" fill="#FC031C"/>
</g>
<defs>
<filter id="filter0_di_44_312" x="0" y="0" width="98" height="87.1016" filterUnits="userSpaceOnUse" color-interpolation-filters="sRGB">
<feFlood flood-opacity="0" result="BackgroundImageFix"/>
<feColorMatrix in="SourceAlpha" type="matrix" values="0 0 0 0 0 0 0 0 0 0 0 0 0 0 0 0 0 0 127 0" result="hardAlpha"/>
<feOffset dy="4"/>
<feGaussianBlur stdDeviation="2"/>
<feComposite in2="hardAlpha" operator="out"/>
<feColorMatrix type="matrix" values="0 0 0 0 0 0 0 0 0 0 0 0 0 0 0 0 0 0 0.25 0"/>
<feBlend mode="normal" in2="BackgroundImageFix" result="effect1_dropShadow_44_312"/>
<feBlend mode="normal" in="SourceGraphic" in2="effect1_dropShadow_44_312" result="shape"/>
<feColorMatrix in="SourceAlpha" type="matrix" values="0 0 0 0 0 0 0 0 0 0 0 0 0 0 0 0 0 0 127 0" result="hardAlpha"/>
<feOffset dy="4"/>
<feGaussianBlur stdDeviation="2"/>
<feComposite in2="hardAlpha" operator="arithmetic" k2="-1" k3="1"/>
<feColorMatrix type="matrix" values="0 0 0 0 0 0 0 0 0 0 0 0 0 0 0 0 0 0 0.25 0"/>
<feBlend mode="normal" in2="shape" result="effect2_innerShadow_44_312"/>
</filter>
</defs>
</svg>
