<svg width="99" height="104" viewBox="0 0 99 104" fill="none" xmlns="http://www.w3.org/2000/svg">
<g filter="url(#filter0_di_44_310)">
<g opacity="0.5">
<path d="M93.2056 68.076C90.6637 65.5341 87.248 64.1043 83.6734 64.1043C80.0988 64.1043 76.6831 65.5341 74.1412 68.076L65.7211 76.4961H61.7493C63.4175 74.1925 64.3707 71.3329 64.3707 68.3143C64.3707 66.7256 63.0997 65.5341 61.5905 65.5341H52.2966C49.278 65.5341 46.3389 64.1837 43.241 62.6744C39.9841 61.1652 36.6478 59.5765 32.6761 59.2587C29.2604 59.0204 25.7652 59.4176 22.4289 60.3708C18.8544 61.4035 16.3124 64.5809 15.9153 68.2349H6.78023C5.19153 68.2349 4 69.5059 4 71.0151V93.0981C4 94.6868 5.27096 95.8783 6.78023 95.8783H64.2118C67.5481 95.8783 70.6461 94.6074 73.0291 92.2243L93.2056 72.0478C94.3177 70.9357 94.3177 69.1881 93.2056 68.076ZM9.63989 73.8748H15.8358V90.3179H9.63989V73.8748ZM69.0574 88.2525C67.7864 89.5235 66.0388 90.2384 64.2118 90.2384H21.4757V69.0292C21.4757 67.52 22.5084 66.1696 23.9382 65.7724C26.639 64.9781 29.4987 64.6603 32.2789 64.8986C35.1386 65.0575 37.9188 66.4079 40.7785 67.7583C44.2736 69.4264 47.9276 71.174 52.2966 71.174H58.3336C57.2215 74.1925 54.4413 76.3373 51.1845 76.5756C51.0256 76.5756 36.489 76.5756 36.489 76.5756C35.774 76.5756 35.218 76.8139 34.662 77.2111C34.0265 77.6877 33.6293 78.482 33.6293 79.4352C33.6293 81.0239 34.9003 82.2155 36.4095 82.2155H66.8332C67.5481 82.2155 68.263 81.8977 68.8191 81.4211L78.113 72.1272C79.6222 70.6179 81.6081 69.8236 83.6734 69.8236C84.7855 69.8236 85.8976 70.0619 86.8508 70.5385L69.0574 88.2525Z" fill="#EB5E6C"/>
<path d="M55.2356 58.7026C71.4404 58.7026 84.5472 45.5163 84.5472 29.391C84.5472 13.2657 71.4404 0 55.2356 0C39.0309 0 25.9241 13.1862 25.9241 29.3116C25.9241 45.4369 39.0309 58.7026 55.2356 58.7026ZM55.2356 5.63989C68.3424 5.63989 78.9867 16.2842 78.9867 29.391C78.9867 42.4978 68.3424 53.0627 55.2356 53.0627C42.1288 53.0627 31.4845 42.4184 31.4845 29.3116C31.4845 16.2048 42.1288 5.63989 55.2356 5.63989Z" fill="#EB5E6C"/>
<path d="M46.895 24.8633C48.8015 24.8633 50.6285 23.1951 50.4696 21.2887C50.3902 19.3028 48.8809 17.7141 46.895 17.7141C44.9886 17.7141 43.1616 19.3822 43.3204 21.2887C43.3999 23.1951 44.9092 24.8633 46.895 24.8633Z" fill="#EB5E6C"/>
<path d="M59.9223 37.7316C60.0017 39.7175 61.511 41.3062 63.4969 41.3062C65.4033 41.3062 67.2303 39.638 67.0715 37.7316C66.992 35.7457 65.4828 34.157 63.4969 34.157C61.6699 34.0776 59.8429 35.7457 59.9223 37.7316Z" fill="#EB5E6C"/>
<path d="M48.1659 46.3901C48.4837 46.5489 48.8808 46.6284 49.278 46.6284C50.3901 46.6284 51.4228 45.9929 51.8994 44.8808L64.2118 15.5692C64.8473 14.1394 64.1324 12.4713 62.7025 11.9152C61.2727 11.2797 59.6046 11.9947 59.0485 13.4245L46.6566 42.7361C46.1006 44.1659 46.7361 45.834 48.1659 46.3901Z" fill="#EB5E6C"/>
</g>
</g>
<defs>
<filter id="filter0_di_44_310" x="0" y="0" width="98.0397" height="103.878" filterUnits="userSpaceOnUse" color-interpolation-filters="sRGB">
<feFlood flood-opacity="0" result="BackgroundImageFix"/>
<feColorMatrix in="SourceAlpha" type="matrix" values="0 0 0 0 0 0 0 0 0 0 0 0 0 0 0 0 0 0 127 0" result="hardAlpha"/>
<feOffset dy="4"/>
<feGaussianBlur stdDeviation="2"/>
<feComposite in2="hardAlpha" operator="out"/>
<feColorMatrix type="matrix" values="0 0 0 0 0 0 0 0 0 0 0 0 0 0 0 0 0 0 0.25 0"/>
<feBlend mode="normal" in2="BackgroundImageFix" result="effect1_dropShadow_44_310"/>
<feBlend mode="normal" in="SourceGraphic" in2="effect1_dropShadow_44_310" result="shape"/>
<feColorMatrix in="SourceAlpha" type="matrix" values="0 0 0 0 0 0 0 0 0 0 0 0 0 0 0 0 0 0 127 0" result="hardAlpha"/>
<feOffset dy="4"/>
<feGaussianBlur stdDeviation="2"/>
<feComposite in2="hardAlpha" operator="arithmetic" k2="-1" k3="1"/>
<feColorMatrix type="matrix" values="0 0 0 0 0 0 0 0 0 0 0 0 0 0 0 0 0 0 0.25 0"/>
<feBlend mode="normal" in2="shape" result="effect2_innerShadow_44_310"/>
</filter>
</defs>
</svg>
