<svg width="557" height="139" viewBox="0 0 557 139" fill="none" xmlns="http://www.w3.org/2000/svg">
<g clip-path="url(#clip0_57:1407)">
<path d="M10.4 42.5C10.3 43.2 10.2 43.9 10.2 44.6C10.1 45.3 10.1 46 10.1 46.7H0V44.6C0 43.7 0 43 0.2 42.5H10.4ZM0 47.3V47H10.1V47.4C10.1 52.4 11.1 57.1 13.1 61.6C15.1 66.1 17.8 70 21.2 73.4C24.6 76.8 28.6 79.5 33.1 81.5C37.6 83.5 42.5 84.5 47.6 84.5C51.1 84.5 54.5 84 57.8 83.1C61.1 82.2 64.2 80.8 67 79.1C69.9 77.4 72.4 75.4 74.8 73C77.1 70.7 79.1 68 80.7 65.1L87.9 72.5C83.7 79.1 78.1 84.4 71.2 88.5C64.2 92.5 56.4 94.6 47.6 94.6C41 94.6 34.8 93.4 29 90.8C23.2 88.3 18.2 84.9 13.9 80.7C9.6 76.5 6.3 71.5 3.8 65.7C1.2 59.9 0 53.8 0 47.3ZM11.3 38.1C11.1 38.8 10.9 39.5 10.9 40.1C10.8 40.8 10.7 41.4 10.6 42.1H0.3C0.4 41.4 0.5 40.7 0.5 40.1C0.5 39.5 0.7 38.8 0.9 38.1H11.3ZM12.8 33.8C12.6 34.4 12.4 35 12.1 35.7C11.8 36.4 11.6 37 11.4 37.6H1.1C1.3 37 1.4 36.4 1.5 35.7C1.6 35 1.7 34.3 2 33.8H12.8ZM14.9 29.4C14.6 30 14.3 30.6 14 31.1C13.7 31.7 13.4 32.2 13.2 32.8H2.2C2.4 32.3 2.6 31.8 2.8 31.2C3 30.6 3.2 30 3.5 29.4H14.9ZM18 24.9C17.5 25.4 17.1 25.9 16.7 26.5C16.3 27.1 16 27.7 15.6 28.1H4.1C4.3 27.6 4.5 27.1 4.8 26.5C5 25.9 5.3 25.4 5.6 24.9H18ZM21.9 20.5C21.4 21 20.9 21.5 20.4 22.1C19.9 22.7 19.4 23.2 18.9 23.7H6.3C6.6 23.2 6.9 22.7 7.3 22.1C7.6 21.6 8 21 8.3 20.5H21.9ZM27.5 16.2C26.8 16.7 26.1 17.2 25.5 17.6C24.8 18 24.3 18.5 23.8 19H9.5C9.9 18.5 10.3 18 10.5 17.6C10.8 17.1 11.2 16.7 11.7 16.2H27.5ZM36.8 11.7C34.7 12.5 32.6 13.4 30.5 14.4H13.4C13.9 13.9 14.4 13.5 14.8 13C15.2 12.6 15.7 12.2 16.2 11.6H36.8V11.7ZM72.8 7.3C73.4 7.7 74 8.1 74.6 8.5C75.2 8.9 75.8 9.4 76.4 9.9H18.5C19.1 9.4 19.7 9 20.3 8.5C20.9 8.1 21.5 7.7 22.1 7.3H72.8ZM64.1 3C64.9 3.4 65.7 3.8 66.6 4.1C67.5 4.5 68.3 4.8 69.2 5.2H25.8C26.6 4.8 27.4 4.4 28.3 4.1C29.1 3.8 30 3.4 30.9 3H64.1ZM47.6 0C50.3 0 52.8 0.2 55.1 0.6H39.8C42 0.2 44.6 0 47.6 0ZM64.8 14.4C62.4 13.3 60.2 12.4 58.3 11.7H78.6C79.1 12.2 79.6 12.7 80 13.1C80.4 13.5 80.9 14 81.4 14.5H64.8V14.4ZM71.6 19C71.1 18.5 70.5 18 69.9 17.6C69.2 17.1 68.6 16.7 67.9 16.2H83.2C83.6 16.7 84 17.2 84.4 17.6C84.8 18 85.2 18.5 85.6 19H71.6ZM76.2 23.7C75.7 23.2 75.2 22.7 74.8 22.1C74.3 21.6 73.9 21 73.4 20.5H86.6C87 21 87.4 21.5 87.6 22.1C87.9 22.7 88.2 23.2 88.5 23.7H76.2ZM79.7 28.2C79.3 27.7 78.9 27.2 78.6 26.6C78.2 26 77.8 25.5 77.3 25H89.3C89.6 25.5 89.9 26 90.1 26.4C90.3 26.9 90.6 27.3 90.8 27.8L90 28.2H79.7ZM82.2 32.8C81.9 32.2 81.6 31.6 81.3 31.1C81 30.6 80.7 30 80.4 29.4H88.2L82.8 32.8H82.2Z" fill="#EB5E6C"/>
<path d="M118.3 86.5H153.6L158.8 94.1H105.2L123.9 56.4H133L118.3 86.5ZM133.1 56.0999H124L125.7 52.7H134.8L133.1 56.0999ZM125.7 52.5L127.4 49.2999H136.4L134.8 52.5H125.7ZM127.7 48.7999L129.1 45.7999H138.1L136.7 48.7999H127.7ZM129.5 45.0999L130.9 42.2999H139.9L138.5 45.0999H129.5ZM131.4 41.4L132.7 38.7999H141.6L140.4 41.4H131.4ZM133.2 37.7999L134.4 35.2999H143.3L142.1 37.7999H133.2ZM144.3 33.2L143.8 34H135L136.2 31.7H152.6L153.7 34H144.7L144.3 33.2ZM136.9 30.3L138 28.1H150.8L151.9 30.3H136.9ZM138.7 26.7L139.7 24.7H149.1L150.2 26.7H138.7ZM140.5 23L141.5 21.2H147.4L148.2 23H140.5ZM142.3 19.3L143.1 17.7H145.5L146.3 19.3H142.3ZM144.1 15.6L144.3 15.2L144.4 15.6H144.1ZM146.6 37.7999L145.3 35.2999H154.3L155.6 37.7999H146.6ZM148.4 41.4L147.1 38.7999H156.1L157.4 41.4H148.4ZM150.2 45.0999L148.9 42.2999H157.9L159.2 45.0999H150.2ZM152.1 48.7999L150.5 45.7999H159.5L161.1 48.7999H152.1ZM153.9 52.5L152.3 49.2999H161.3L162.9 52.5H153.9ZM155.7 56.0999L154 52.7H163L164.7 56.0999H155.7ZM183.9 94H174.5L155.8 56.2999H164.8L183.9 94Z" fill="#EB5E6C"/>
<path d="M198.3 23.7L198.8 20.6H209.9C209.7 21.1 209.6 21.6 209.5 22.2C209.4 22.8 209.4 23.3 209.3 23.8H198.3V23.7ZM198.3 26.4V24.9H209.1V26.4C209.1 26.7 209.1 27 209 27.3C208.9 27.6 209 27.9 209.1 28.2H198.3V26.4ZM199 32.8C198.8 32.3 198.7 31.8 198.6 31.2C198.5 30.6 198.5 30 198.4 29.4H209.2C209.3 30 209.4 30.6 209.5 31.2C209.6 31.8 209.7 32.4 210 32.8H199ZM199 19C199.2 18.5 199.3 18 199.5 17.6C199.6 17.1 199.7 16.7 200 16.2H211.8C211.6 16.6 211.4 17.1 211 17.6C210.7 18.1 210.4 18.6 210.2 19.1H199V19ZM200.5 37.5C200.3 36.9 200.1 36.3 199.8 35.7C199.5 35.1 199.3 34.4 199.1 33.7H210.2C210.7 35.1 211.4 36.4 212.3 37.5H200.5ZM199.8 84.6H253.7C259.1 84.6 263.1 83.1 265.8 80C268.5 76.9 269.9 72.9 269.9 68.1C269.9 63.9 268.9 60.4 267.1 57.7C265.2 55 262.1 53.2 257.9 52.4V47H270.5C273.6 49.3 276.1 52.3 277.9 56.1C279.7 59.9 280.7 63.9 280.7 68.2C280.7 72.1 280.1 75.7 278.8 78.9C277.5 82.1 275.9 84.8 273.8 87.1C271.7 89.4 269.2 91.1 266.5 92.4C263.7 93.7 260.7 94.3 257.6 94.3H199.9V84.6H199.8ZM200.5 14.4C200.7 13.9 200.9 13.5 201.2 13C201.4 12.6 201.7 12.2 202 11.6H216.9C215.5 12.4 214.3 13.3 213.3 14.3H200.5V14.4ZM203.2 42.1C202.1 40.9 201.3 39.6 200.8 38.1H212.8C214.6 40.1 217.2 41.5 220.4 42.1H203.2ZM279.1 9.90002H203C203.4 9.40002 203.8 9.00002 204 8.60003C204.3 8.30002 204.6 7.80002 205.1 7.30002H279.1V9.90002ZM207.1 46.6C205.8 45.4 204.6 44 203.3 42.4H221V46.6H207.1ZM207.6 5.30002C208.1 4.90002 208.6 4.50002 209.2 4.10002C209.7 3.70002 210.3 3.30002 210.9 3.10002H279.2V5.40002H207.6V5.30002ZM221.1 52C215.9 52 211.4 50.3 207.6 46.9H221.1V52ZM279.1 0.400024V0.600024H218.5C218.8 0.500024 219.3 0.400024 219.9 0.400024H221.4H279.1ZM257.8 42.5C260.1 42.5 262.3 42.9 264.3 43.6C266.3 44.4 268.3 45.4 270.1 46.7H257.8V42.5Z" fill="#EB5E6C"/>
<path d="M295 94L313.8 56.2999H323L304.3 94H295ZM323.2 56.0999H314L315.7 52.7H324.9L323.2 56.0999ZM315.7 52.5L317.4 49.2999H326.5L324.9 52.5H315.7ZM317.6 48.7999L319 45.7999H328.2L326.6 48.7999H317.6ZM319.4 45.0999L320.8 42.2999H329.9L328.6 45.0999H319.4ZM360.6 86.5L345.8 56.4H355L373.8 94H320.2L325.4 86.4H360.6V86.5ZM321.4 41.4L322.7 38.7999H331.8L330.5 41.4H321.4ZM323.2 37.7999L324.4 35.2999H333.5L332.3 37.7999H323.2ZM334.6 33.2L334.1 34H325L326.2 31.7H342.9L344 34H335L334.6 33.2ZM326.9 30.3L328 28.1H341L342.1 30.3H326.9ZM328.7 26.7L329.7 24.7H339.3L340.4 26.7H328.7ZM330.5 23L331.5 21.2H337.6L338.4 23H330.5ZM332.4 19.3L333.2 17.7H335.7L336.5 19.3H332.4ZM334.3 15.6L334.5 15.2L334.6 15.6H334.3ZM336.8 37.7999L335.5 35.2999H344.5L345.8 37.7999H336.8ZM338.5 41.4L337.3 38.7999H346.3L347.6 41.4H338.5ZM340.3 45.0999L339 42.2999H348.1L349.4 45.0999H340.3ZM342.1 48.7999L340.7 45.7999H349.8L351.4 48.7999H342.1ZM343.9 52.5L342.3 49.2999H351.5L353.1 52.5H343.9ZM345.7 56.0999L344 52.7H353.2L354.9 56.0999H345.7Z" fill="#EB5E6C"/>
<path d="M428.3 0.400024C429 0.400024 429.6 0.400024 430.3 0.500024C430.9 0.600024 431.5 0.600024 432.3 0.600024H389.4V0.400024H428.3ZM443.8 3.00002C444.8 3.40002 445.8 3.80002 446.6 4.00002C447.5 4.30002 448.4 4.70002 449.3 5.20002H389.3V3.00002H443.8ZM453.1 7.30002C453.8 7.80002 454.5 8.20003 455.1 8.60003C455.7 9.00002 456.4 9.40002 457 9.90002H389.3V7.30002H453.1ZM389.3 14.4V11.7H399.8V14.4H389.3ZM389.3 19V16.1H399.8V19H389.3ZM389.3 23.7V20.6H399.8V23.7H389.3ZM389.3 28.2V24.9H399.8V28.2H389.3ZM389.3 32.8V29.4H399.8V32.8H389.3ZM389.3 37.5V33.7H399.8V37.5H389.3ZM389.3 42.1V38.1H399.8V42.1H389.3ZM389.3 46.6V42.4H399.8V46.6H389.3ZM399.8 84.5H428.3C432.9 84.5 437.5 83.5 442 81.6C446.5 79.7 450.6 77 454.1 73.6C457.6 70.2 460.4 66.3 462.6 61.9C464.8 57.5 465.9 52.8 465.9 47.8V47H475.8V47.6C475.8 54.1 474.5 60.2 471.8 65.8C469.1 71.5 465.5 76.4 461.1 80.6C456.7 84.8 451.7 88.1 446 90.5C440.3 92.9 434.5 94.1 428.5 94.1H389.2V47H399.7V84.5H399.8ZM445.3 14.4C443.2 13.4 440.9 12.5 438.5 11.7H459.2C459.7 12.2 460.2 12.7 460.6 13.1C461.1 13.5 461.5 14 462 14.5H445.3V14.4ZM452.2 19C451.6 18.5 451 18 450.3 17.6C449.6 17.1 449 16.7 448.3 16.2H463.8C464.3 16.7 464.7 17.2 465.1 17.6C465.4 18 465.8 18.5 466.2 19H452.2ZM456.8 23.7C456.3 23.2 455.8 22.7 455.3 22.1C454.8 21.6 454.3 21 453.8 20.5H467.3C467.7 21 468.1 21.5 468.3 22.1C468.6 22.7 468.9 23.2 469.2 23.7H456.8ZM460.1 28.2C459.7 27.7 459.3 27.2 459 26.6C458.6 26 458.3 25.5 457.9 25H470C470.3 25.5 470.6 26 470.8 26.6C471 27.2 471.3 27.8 471.6 28.2H460.1ZM462.7 32.8C462.4 32.2 462.1 31.6 461.8 31.1C461.5 30.6 461.2 30 460.9 29.4H472.2C472.4 30 472.6 30.6 472.9 31.1C473.1 31.7 473.4 32.2 473.6 32.8H462.7ZM464.5 37.5C464.3 36.9 464.1 36.3 463.8 35.6C463.5 35 463.3 34.3 463.1 33.7H473.8C474 34.3 474.1 34.9 474.3 35.6C474.4 36.3 474.5 36.9 474.7 37.5H464.5ZM465.5 42.1L464.6 38.1H474.8C475 38.8 475.1 39.5 475.3 40.1C475.4 40.8 475.5 41.4 475.6 42.1H465.5ZM466 46.6C465.9 46.1 465.8 45.4 465.8 44.5C465.8 44.1 465.8 43.7 465.7 43.5C465.6 43.2 465.6 42.9 465.5 42.5H475.5C475.6 43.2 475.7 43.9 475.7 44.6C475.7 45.3 475.8 46 475.8 46.7H466V46.6Z" fill="#EB5E6C"/>
<path d="M492.5 19.2H556.7V19.2999H492.5V19.2ZM492.5 23V21.2H556.7V23H492.5ZM556.7 26.7H492.5V24.7H556.7V26.7ZM492.5 86.5H520.3V56.4H528.7V86.5H556.7V94H492.5V86.5ZM520.3 30.2999V28.1H528.7V30.2999H520.3ZM520.3 34V31.7H528.7V34H520.3ZM520.3 37.7999V35.2999H528.7V37.7999H520.3ZM520.3 41.4V38.7999H528.7V41.4H520.3ZM520.3 45.0999V42.2999H528.7V45.0999H520.3ZM520.3 48.7999V45.7999H528.7V48.7999H520.3ZM520.3 52.5V49.2999H528.7V52.5H520.3ZM520.3 56.0999V52.7H528.7V56.0999H520.3Z" fill="#EB5E6C"/>
<path d="M80.0001 130.5C79.6001 130.1 79.2001 129.8 78.9001 129.7C78.5001 129.6 78.2001 129.5 77.8001 129.5C77.2001 129.5 76.8001 129.6 76.3001 129.8C75.9001 130 75.5001 130.3 75.2001 130.6C74.9001 130.9 74.6001 131.3 74.5001 131.8C74.4001 132.3 74.2001 132.8 74.2001 133.3C74.2001 133.9 74.3001 134.4 74.5001 134.9C74.7001 135.4 74.9001 135.8 75.2001 136.1C75.5001 136.4 75.9001 136.7 76.3001 136.9C76.7001 137.1 77.2001 137.2 77.8001 137.2C78.2001 137.2 78.6001 137.1 79.1001 136.9C79.5001 136.7 79.9001 136.4 80.2001 135.9L81.8001 137C81.3001 137.7 80.7001 138.1 80.0001 138.4C79.3001 138.7 78.6001 138.9 77.8001 138.9C77.0001 138.9 76.2001 138.8 75.5001 138.5C74.8001 138.2 74.2001 137.9 73.7001 137.4C73.2001 136.9 72.8001 136.3 72.5001 135.7C72.2001 135 72.1001 134.3 72.1001 133.4C72.1001 132.6 72.2001 131.8 72.5001 131.1C72.8001 130.4 73.2001 129.8 73.7001 129.3C74.2001 128.8 74.8001 128.4 75.5001 128.2C76.2001 128 76.9001 127.8 77.8001 127.8C78.5001 127.8 79.2001 127.9 79.8001 128.2C80.4001 128.5 81.0001 128.9 81.5001 129.5L80.0001 130.5Z" fill="#EB5E6C"/>
<path d="M95.5003 128H97.1003L101.7 138.6H99.5003L98.5003 136.2H93.9003L92.9003 138.6H90.8003L95.5003 128ZM97.9003 134.6L96.3003 130.3L94.6003 134.6H97.9003Z" fill="#EB5E6C"/>
<path d="M111.9 128H115.6C116.1 128 116.6 128 117.1 128.1C117.6 128.2 118 128.4 118.4 128.6C118.8 128.8 119.1 129.1 119.3 129.5C119.5 129.9 119.6 130.4 119.6 131C119.6 131.8 119.4 132.4 119 132.9C118.6 133.4 118 133.7 117.2 133.8L120 138.5H117.7L115.2 134H113.8V138.5H111.9V128ZM115.2 132.5C115.5 132.5 115.7 132.5 116 132.5C116.3 132.5 116.5 132.4 116.7 132.3C116.9 132.2 117.1 132.1 117.2 131.9C117.3 131.7 117.4 131.4 117.4 131.1C117.4 130.8 117.3 130.5 117.2 130.3C117.1 130.1 116.9 130 116.7 129.9C116.5 129.8 116.3 129.7 116 129.7C115.7 129.7 115.5 129.7 115.3 129.7H113.7V132.6H115.2V132.5Z" fill="#EB5E6C"/>
<path d="M130.3 128H132.8L137.9 135.9V128H139.8V138.6H137.4L132.1 130.5V138.6H130.2V128H130.3Z" fill="#EB5E6C"/>
<path d="M151.3 128H158.3V129.7H153.2V132.3H158.1V134H153.2V136.9H158.6V138.6H151.3V128Z" fill="#EB5E6C"/>
<path d="M171.6 129.8H168.3V128H176.7V129.7H173.4V138.6H171.5V129.8H171.6Z" fill="#EB5E6C"/>
<path d="M205.7 130.3C205.5 130 205.2 129.8 204.9 129.7C204.6 129.6 204.2 129.5 203.8 129.5C203.6 129.5 203.4 129.5 203.2 129.6C203 129.6 202.8 129.7 202.6 129.8C202.4 129.9 202.3 130.1 202.2 130.2C202.1 130.4 202.1 130.6 202.1 130.8C202.1 131.2 202.2 131.4 202.5 131.6C202.8 131.8 203.1 132 203.4 132.1C203.8 132.2 204.2 132.4 204.6 132.5C205 132.6 205.4 132.8 205.8 133C206.2 133.2 206.5 133.5 206.7 133.9C206.9 134.3 207.1 134.8 207.1 135.4C207.1 136 207 136.5 206.8 136.9C206.6 137.3 206.3 137.7 206 138C205.6 138.3 205.2 138.5 204.8 138.6C204.3 138.7 203.8 138.8 203.3 138.8C202.6 138.8 202 138.7 201.4 138.5C200.8 138.3 200.3 137.9 199.8 137.4L201.2 136C201.4 136.4 201.7 136.6 202.1 136.8C202.5 137 202.9 137.1 203.3 137.1C203.5 137.1 203.7 137.1 204 137C204.2 136.9 204.4 136.8 204.6 136.7C204.8 136.6 204.9 136.4 205 136.2C205.1 136 205.2 135.8 205.2 135.6C205.2 135.2 205.1 134.9 204.8 134.7C204.5 134.5 204.2 134.3 203.9 134.2C203.6 134.1 203.1 133.9 202.7 133.8C202.3 133.7 201.9 133.5 201.5 133.3C201.1 133.1 200.8 132.8 200.6 132.4C200.4 132 200.2 131.5 200.2 130.9C200.2 130.4 200.3 129.9 200.5 129.5C200.7 129.1 201 128.8 201.4 128.5C201.8 128.2 202.2 128 202.7 127.9C203.2 127.8 203.6 127.7 204.1 127.7C204.7 127.7 205.2 127.8 205.7 128C206.2 128.2 206.7 128.5 207.1 128.8L205.7 130.3Z" fill="#EB5E6C"/>
<path d="M221.5 128H223.1L227.7 138.6H225.5L224.5 136.2H220L219 138.6H216.9L221.5 128ZM223.9 134.6L222.3 130.3L220.6 134.6H223.9Z" fill="#EB5E6C"/>
<path d="M237.9 128H240.4L245.5 135.9V128H247.4V138.6H245L239.7 130.5V138.6H237.8V128H237.9Z" fill="#EB5E6C"/>
<path d="M258.8 128H260.7V138.6H258.8V128Z" fill="#EB5E6C"/>
<path d="M274.2 129.8H270.9V128H279.3V129.7H276V138.6H274.1V129.8H274.2Z" fill="#EB5E6C"/>
<path d="M291.7 128H293.3L297.9 138.6H295.7L294.7 136.2H290.1L289.1 138.6H287L291.7 128ZM294.1 134.6L292.5 130.3L290.8 134.6H294.1Z" fill="#EB5E6C"/>
<path d="M308.1 128H311.8C312.3 128 312.8 128 313.3 128.1C313.8 128.2 314.2 128.4 314.6 128.6C315 128.8 315.3 129.1 315.5 129.5C315.7 129.9 315.8 130.4 315.8 131C315.8 131.8 315.6 132.4 315.2 132.9C314.8 133.4 314.2 133.7 313.4 133.8L316.2 138.5H313.9L311.4 134H310V138.5H308.1V128ZM311.4 132.5C311.7 132.5 311.9 132.5 312.2 132.5C312.5 132.5 312.7 132.4 312.9 132.3C313.1 132.2 313.3 132.1 313.4 131.9C313.5 131.7 313.6 131.4 313.6 131.1C313.6 130.8 313.5 130.5 313.4 130.3C313.3 130.1 313.1 130 312.9 129.9C312.7 129.8 312.5 129.7 312.2 129.7C311.9 129.7 311.7 129.7 311.5 129.7H310V132.6H311.4V132.5Z" fill="#EB5E6C"/>
<path d="M326.5 128H328.4V138.6H326.5V128Z" fill="#EB5E6C"/>
<path d="M339.1 133.4C339.1 132.6 339.2 131.8 339.5 131.1C339.8 130.4 340.2 129.8 340.7 129.3C341.2 128.8 341.8 128.4 342.5 128.2C343.2 128 343.9 127.8 344.8 127.8C345.6 127.8 346.4 127.9 347.1 128.2C347.8 128.5 348.4 128.8 348.9 129.3C349.4 129.8 349.8 130.4 350.1 131.1C350.4 131.8 350.5 132.6 350.5 133.4C350.5 134.2 350.4 135 350.1 135.7C349.8 136.4 349.4 137 348.9 137.5C348.4 138 347.8 138.4 347.1 138.6C346.4 138.9 345.6 139 344.8 139C344 139 343.2 138.9 342.5 138.6C341.8 138.3 341.2 138 340.7 137.5C340.2 137 339.8 136.4 339.5 135.8C339.3 135 339.1 134.2 339.1 133.4ZM341.1 133.3C341.1 133.9 341.2 134.4 341.4 134.9C341.6 135.4 341.8 135.8 342.1 136.1C342.4 136.4 342.8 136.7 343.2 136.9C343.6 137.1 344.1 137.2 344.7 137.2C345.2 137.2 345.7 137.1 346.2 136.9C346.6 136.7 347 136.4 347.4 136.1C347.7 135.7 348 135.3 348.1 134.9C348.3 134.4 348.4 133.9 348.4 133.3C348.4 132.8 348.3 132.3 348.1 131.8C347.9 131.3 347.7 130.9 347.4 130.6C347.1 130.3 346.7 130 346.2 129.8C345.7 129.6 345.2 129.5 344.7 129.5C344.1 129.5 343.7 129.6 343.2 129.8C342.8 130 342.4 130.3 342.1 130.6C341.8 130.9 341.5 131.3 341.4 131.8C341.3 132.3 341.1 132.8 341.1 133.3Z" fill="#EB5E6C"/>
<path d="M374.6 128H378.8C379.5 128 380.2 128.1 380.8 128.3C381.5 128.5 382 128.8 382.5 129.3C383 129.7 383.4 130.3 383.7 131C384 131.7 384.1 132.4 384.1 133.3C384.1 134.2 383.9 135 383.6 135.7C383.3 136.4 382.8 136.9 382.3 137.4C381.8 137.8 381.1 138.2 380.5 138.4C379.9 138.6 379.2 138.7 378.5 138.7H374.5V128H374.6ZM377.9 137C378.5 137 379 136.9 379.6 136.8C380.1 136.7 380.6 136.5 381 136.2C381.4 135.9 381.7 135.5 381.9 135.1C382.1 134.6 382.2 134.1 382.2 133.4C382.2 132.8 382.1 132.2 381.9 131.7C381.7 131.2 381.4 130.9 381.1 130.6C380.7 130.3 380.3 130.1 379.8 130C379.3 129.9 378.8 129.8 378.2 129.8H376.5V137H377.9Z" fill="#EB5E6C"/>
<path d="M395 128H396.9V138.6H395V128Z" fill="#EB5E6C"/>
<path d="M417.6 137.9C416.3 138.6 414.8 138.9 413.2 138.9C412.4 138.9 411.6 138.8 410.9 138.5C410.2 138.2 409.6 137.9 409.1 137.4C408.6 136.9 408.2 136.3 407.9 135.7C407.6 135 407.5 134.3 407.5 133.4C407.5 132.6 407.6 131.8 407.9 131.1C408.2 130.4 408.6 129.8 409.1 129.3C409.6 128.8 410.2 128.4 410.9 128.2C411.6 127.9 412.3 127.8 413.2 127.8C414 127.8 414.8 127.9 415.5 128.1C416.2 128.3 416.8 128.6 417.4 129.1L416 130.5C415.7 130.2 415.2 129.9 414.8 129.7C414.3 129.5 413.8 129.4 413.3 129.4C412.7 129.4 412.3 129.5 411.8 129.7C411.4 129.9 411 130.2 410.7 130.5C410.4 130.8 410.1 131.2 410 131.7C409.9 132.2 409.7 132.7 409.7 133.2C409.7 133.8 409.8 134.3 410 134.8C410.2 135.3 410.4 135.7 410.7 136C411 136.3 411.4 136.6 411.8 136.8C412.2 137 412.7 137.1 413.3 137.1C413.8 137.1 414.2 137.1 414.7 137C415.1 136.9 415.5 136.8 415.8 136.6V134.1H413.6V132.4H417.7V137.9H417.6Z" fill="#EB5E6C"/>
<path d="M428.8 128H430.7V138.6H428.8V128Z" fill="#EB5E6C"/>
<path d="M444.2 129.8H440.9V128H449.3V129.7H446V138.6H444.1V129.8H444.2Z" fill="#EB5E6C"/>
<path d="M461.7 128H463.3L467.9 138.6H465.7L464.7 136.2H460.1L459.1 138.6H457L461.7 128ZM464.1 134.6L462.5 130.3L460.8 134.6H464.1Z" fill="#EB5E6C"/>
<path d="M478.1 128H480V136.9H484.5V138.6H478.1V128Z" fill="#EB5E6C"/>
</g>
<defs>
<clipPath id="clip0_57:1407">
<rect width="556.7" height="138.9" fill="white"/>
</clipPath>
</defs>
</svg>
