<svg width="97" height="103" viewBox="0 0 97 103" fill="none" xmlns="http://www.w3.org/2000/svg">
<g filter="url(#filter0_d_16_305)">
<circle cx="48.5" cy="50.5" r="44.5" fill="white"/>
</g>
<g filter="url(#filter1_i_16_305)">
<path d="M53.403 53.84C55.883 54.24 57.883 55.44 59.403 57.44C60.963 59.4 61.743 61.76 61.743 64.52C61.743 67.04 61.103 69.22 59.823 71.06C58.543 72.9 56.723 74.32 54.363 75.32C52.043 76.32 49.303 76.82 46.143 76.82C40.063 76.82 35.423 74.9 32.223 71.06L36.783 65.36C37.823 66.68 39.063 67.7 40.503 68.42C41.983 69.14 43.783 69.5 45.903 69.5C48.343 69.5 50.203 69 51.483 68C52.763 67.04 53.403 65.58 53.403 63.62C53.403 61.54 52.663 59.94 51.183 58.82C49.703 57.7 47.463 57.14 44.463 57.14H42.783V51.14H44.643C47.083 51.14 48.983 50.6 50.343 49.52C51.743 48.4 52.443 46.98 52.443 45.26C52.443 43.66 51.883 42.46 50.763 41.66C49.643 40.82 48.183 40.4 46.383 40.4C42.663 40.4 39.823 42 37.863 45.2L32.823 39.56C33.663 38.36 34.803 37.3 36.243 36.38C37.723 35.46 39.403 34.74 41.283 34.22C43.203 33.7 45.203 33.44 47.283 33.44C50.003 33.44 52.383 33.88 54.423 34.76C56.503 35.64 58.123 36.88 59.283 38.48C60.443 40.08 61.023 41.94 61.023 44.06C61.023 45.66 60.703 47.16 60.063 48.56C59.423 49.92 58.523 51.08 57.363 52.04C56.243 52.96 54.923 53.56 53.403 53.84Z" fill="#F8F8F8"/>
</g>
<path d="M53.403 53.84L53.2218 52.8565L53.2437 54.8272L53.403 53.84ZM59.403 57.44L58.6068 58.0451L58.6136 58.054L58.6205 58.0627L59.403 57.44ZM59.823 71.06L60.6439 71.6311L59.823 71.06ZM54.363 75.32L53.9728 74.3992L53.9671 74.4017L54.363 75.32ZM32.223 71.06L31.4421 70.4353L30.932 71.0729L31.4547 71.7002L32.223 71.06ZM36.783 65.36L37.5685 64.7411L36.7889 63.7517L36.0021 64.7353L36.783 65.36ZM40.503 68.42L40.0557 69.3145L40.0655 69.3192L40.503 68.42ZM51.483 68L50.883 67.2L50.8751 67.2059L50.8673 67.212L51.483 68ZM51.183 58.82L51.7864 58.0226H51.7864L51.183 58.82ZM42.783 57.14H41.783V58.14H42.783V57.14ZM42.783 51.14V50.14H41.783V51.14H42.783ZM50.343 49.52L50.9649 50.3031L50.9677 50.3009L50.343 49.52ZM50.763 41.66L50.163 42.46L50.1723 42.467L50.1817 42.4737L50.763 41.66ZM37.863 45.2L37.1173 45.8663L38.0134 46.869L38.7157 45.7223L37.863 45.2ZM32.823 39.56L32.0037 38.9865L31.5494 39.6356L32.0773 40.2263L32.823 39.56ZM36.243 36.38L35.715 35.5307L35.7046 35.5373L36.243 36.38ZM41.283 34.22L41.0215 33.2548L41.0164 33.2562L41.283 34.22ZM54.423 34.76L54.0269 35.6782L54.0333 35.681L54.423 34.76ZM59.283 38.48L60.0926 37.893L59.283 38.48ZM60.063 48.56L60.9678 48.9858L60.9724 48.9758L60.063 48.56ZM57.363 52.04L57.9977 52.8127L58.0005 52.8104L57.363 52.04ZM53.2437 54.8272C55.4702 55.1864 57.2422 56.2495 58.6068 58.0451L60.1991 56.8349C58.5238 54.6305 56.2957 53.2936 53.5622 52.8528L53.2437 54.8272ZM58.6205 58.0627C60.0252 59.8275 60.743 61.9617 60.743 64.52H62.743C62.743 61.5583 61.9008 58.9725 60.1854 56.8173L58.6205 58.0627ZM60.743 64.52C60.743 66.8622 60.1513 68.837 59.0021 70.4889L60.6439 71.6311C62.0547 69.603 62.743 67.2178 62.743 64.52H60.743ZM59.0021 70.4889C57.8446 72.1528 56.1847 73.462 53.9728 74.3992L54.7531 76.2408C57.2613 75.178 59.2413 73.6472 60.6439 71.6311L59.0021 70.4889ZM53.9671 74.4017C51.7993 75.3361 49.1999 75.82 46.143 75.82V77.82C49.4061 77.82 52.2867 77.3039 54.7588 76.2383L53.9671 74.4017ZM46.143 75.82C40.2892 75.82 35.9602 73.9827 32.9912 70.4198L31.4547 71.7002C34.8857 75.8173 39.8367 77.82 46.143 77.82V75.82ZM33.0038 71.6847L37.5638 65.9847L36.0021 64.7353L31.4421 70.4353L33.0038 71.6847ZM35.9975 65.9789C37.1245 67.4093 38.4783 68.5257 40.0558 69.3144L40.9502 67.5256C39.6476 66.8743 38.5215 65.9507 37.5685 64.7411L35.9975 65.9789ZM40.0655 69.3192C41.7152 70.1218 43.6736 70.5 45.903 70.5V68.5C43.8924 68.5 42.2507 68.1582 40.9404 67.5208L40.0655 69.3192ZM45.903 70.5C48.4591 70.5 50.5739 69.9792 52.0986 68.788L50.8673 67.212C49.8321 68.0208 48.2268 68.5 45.903 68.5V70.5ZM52.083 68.8C53.672 67.6083 54.403 65.8157 54.403 63.62H52.403C52.403 65.3443 51.854 66.4717 50.883 67.2L52.083 68.8ZM54.403 63.62C54.403 61.2701 53.5488 59.3563 51.7864 58.0226L50.5795 59.6174C51.7771 60.5237 52.403 61.8099 52.403 63.62H54.403ZM51.7864 58.0226C50.0547 56.7121 47.5569 56.14 44.463 56.14V58.14C47.3691 58.14 49.3513 58.6879 50.5795 59.6174L51.7864 58.0226ZM44.463 56.14H42.783V58.14H44.463V56.14ZM43.783 57.14V51.14H41.783V57.14H43.783ZM42.783 52.14H44.643V50.14H42.783V52.14ZM44.643 52.14C47.2191 52.14 49.3686 51.5707 50.9649 50.3031L49.7211 48.7369C48.5973 49.6293 46.9469 50.14 44.643 50.14V52.14ZM50.9677 50.3009C52.5932 49.0004 53.443 47.2984 53.443 45.26H51.443C51.443 46.6616 50.8927 47.7996 49.7183 48.7391L50.9677 50.3009ZM53.443 45.26C53.443 43.3972 52.7724 41.8664 51.3442 40.8463L50.1817 42.4737C50.9936 43.0536 51.443 43.9228 51.443 45.26H53.443ZM51.363 40.86C50.026 39.8573 48.3372 39.4 46.383 39.4V41.4C48.0288 41.4 49.2599 41.7827 50.163 42.46L51.363 40.86ZM46.383 39.4C42.3112 39.4 39.15 41.1841 37.0102 44.6777L38.7157 45.7223C40.4959 42.8159 43.0147 41.4 46.383 41.4V39.4ZM38.6086 44.5337L33.5686 38.8937L32.0773 40.2263L37.1173 45.8663L38.6086 44.5337ZM33.6422 40.1335C34.3957 39.0571 35.4336 38.0838 36.7814 37.2227L35.7046 35.5373C34.1724 36.5162 32.9303 37.6629 32.0037 38.9865L33.6422 40.1335ZM36.7709 37.2293C38.1607 36.3654 39.7509 35.6813 41.5496 35.1838L41.0164 33.2562C39.0551 33.7987 37.2853 34.5546 35.715 35.5307L36.7709 37.2293ZM41.5444 35.1852C43.3754 34.6893 45.2872 34.44 47.283 34.44V32.44C45.1187 32.44 43.0306 32.7107 41.0216 33.2548L41.5444 35.1852ZM47.283 34.44C49.8965 34.44 52.1367 34.8628 54.0269 35.6782L54.8191 33.8418C52.6293 32.8972 50.1094 32.44 47.283 32.44V34.44ZM54.0333 35.681C55.97 36.5003 57.4349 37.6346 58.4734 39.067L60.0926 37.893C58.8111 36.1254 57.036 34.7797 54.8126 33.839L54.0333 35.681ZM58.4734 39.067C59.5004 40.4836 60.023 42.1346 60.023 44.06H62.023C62.023 41.7454 61.3855 39.6764 60.0926 37.893L58.4734 39.067ZM60.023 44.06C60.023 45.5223 59.7315 46.8799 59.1535 48.1442L60.9724 48.9758C61.6745 47.4401 62.023 45.7977 62.023 44.06H60.023ZM59.1582 48.1342C58.5809 49.3608 57.7723 50.4032 56.7254 51.2696L58.0005 52.8104C59.2737 51.7568 60.265 50.4792 60.9678 48.9858L59.1582 48.1342ZM56.7282 51.2673C55.7478 52.0726 54.5866 52.6051 53.2218 52.8565L53.5841 54.8235C55.2593 54.5149 56.7381 53.8474 57.9977 52.8127L56.7282 51.2673Z" fill="#AAAAAA"/>
<defs>
<filter id="filter0_d_16_305" x="0" y="6" width="97" height="97" filterUnits="userSpaceOnUse" color-interpolation-filters="sRGB">
<feFlood flood-opacity="0" result="BackgroundImageFix"/>
<feColorMatrix in="SourceAlpha" type="matrix" values="0 0 0 0 0 0 0 0 0 0 0 0 0 0 0 0 0 0 127 0" result="hardAlpha"/>
<feOffset dy="4"/>
<feGaussianBlur stdDeviation="2"/>
<feComposite in2="hardAlpha" operator="out"/>
<feColorMatrix type="matrix" values="0 0 0 0 0 0 0 0 0 0 0 0 0 0 0 0 0 0 0.25 0"/>
<feBlend mode="normal" in2="BackgroundImageFix" result="effect1_dropShadow_16_305"/>
<feBlend mode="normal" in="SourceGraphic" in2="effect1_dropShadow_16_305" result="shape"/>
</filter>
<filter id="filter1_i_16_305" x="32.2229" y="33.4399" width="29.52" height="47.38" filterUnits="userSpaceOnUse" color-interpolation-filters="sRGB">
<feFlood flood-opacity="0" result="BackgroundImageFix"/>
<feBlend mode="normal" in="SourceGraphic" in2="BackgroundImageFix" result="shape"/>
<feColorMatrix in="SourceAlpha" type="matrix" values="0 0 0 0 0 0 0 0 0 0 0 0 0 0 0 0 0 0 127 0" result="hardAlpha"/>
<feOffset dy="4"/>
<feGaussianBlur stdDeviation="2"/>
<feComposite in2="hardAlpha" operator="arithmetic" k2="-1" k3="1"/>
<feColorMatrix type="matrix" values="0 0 0 0 0 0 0 0 0 0 0 0 0 0 0 0 0 0 0.25 0"/>
<feBlend mode="normal" in2="shape" result="effect1_innerShadow_16_305"/>
</filter>
</defs>
</svg>
