<svg width="97" height="103" viewBox="0 0 97 103" fill="none" xmlns="http://www.w3.org/2000/svg">
<g filter="url(#filter0_d_16_299)">
<circle cx="48.5" cy="50.5" r="44.5" fill="white"/>
</g>
<g filter="url(#filter1_i_16_299)">
<path d="M62.5516 60.74V68H38.1916V60.74H46.7116V42.56C46.2316 43.16 45.4116 43.8 44.2516 44.48C43.1316 45.16 41.8916 45.74 40.5316 46.22C39.2116 46.7 38.0316 46.94 36.9916 46.94V39.44C37.7116 39.44 38.5716 39.22 39.5716 38.78C40.6116 38.3 41.6316 37.74 42.6316 37.1C43.6716 36.46 44.5516 35.84 45.2716 35.24C46.0316 34.6 46.5116 34.1 46.7116 33.74H54.9316V60.74H62.5516Z" fill="#F8F8F8"/>
</g>
<path d="M62.5516 60.74H63.5516V59.74H62.5516V60.74ZM62.5516 68V69H63.5516V68H62.5516ZM38.1916 68H37.1916V69H38.1916V68ZM38.1916 60.74V59.74H37.1916V60.74H38.1916ZM46.7116 60.74V61.74H47.7116V60.74H46.7116ZM46.7116 42.56H47.7116V39.7092L45.9307 41.9353L46.7116 42.56ZM44.2516 44.48L43.7458 43.6173L43.7392 43.6212L43.7326 43.6252L44.2516 44.48ZM40.5316 46.22L40.1987 45.277L40.1898 45.2802L40.5316 46.22ZM36.9916 46.94H35.9916V47.94H36.9916V46.94ZM36.9916 39.44V38.44H35.9916V39.44H36.9916ZM39.5716 38.78L39.9743 39.6953L39.9825 39.6917L39.9906 39.688L39.5716 38.78ZM42.6316 37.1L42.1075 36.2483L42.0999 36.253L42.0925 36.2577L42.6316 37.1ZM45.2716 35.24L45.9118 36.0082L45.9157 36.0049L45.2716 35.24ZM46.7116 33.74V32.74H46.1232L45.8374 33.2544L46.7116 33.74ZM54.9316 33.74H55.9316V32.74H54.9316V33.74ZM54.9316 60.74H53.9316V61.74H54.9316V60.74ZM61.5516 60.74V68H63.5516V60.74H61.5516ZM62.5516 67H38.1916V69H62.5516V67ZM39.1916 68V60.74H37.1916V68H39.1916ZM38.1916 61.74H46.7116V59.74H38.1916V61.74ZM47.7116 60.74V42.56H45.7116V60.74H47.7116ZM45.9307 41.9353C45.5639 42.3937 44.8673 42.9599 43.7458 43.6173L44.7573 45.3427C45.9558 44.6401 46.8992 43.9263 47.4924 43.1847L45.9307 41.9353ZM43.7326 43.6252C42.677 44.2661 41.5002 44.8177 40.1987 45.277L40.8644 47.163C42.2829 46.6623 43.5861 46.0539 44.7705 45.3348L43.7326 43.6252ZM40.1898 45.2802C38.9434 45.7334 37.8821 45.94 36.9916 45.94V47.94C38.181 47.94 39.4797 47.6666 40.8733 47.1598L40.1898 45.2802ZM37.9916 46.94V39.44H35.9916V46.94H37.9916ZM36.9916 40.44C37.903 40.44 38.9068 40.165 39.9743 39.6953L39.1688 37.8647C38.2364 38.275 37.5201 38.44 36.9916 38.44V40.44ZM39.9906 39.688C41.0736 39.1881 42.1336 38.606 43.1706 37.9423L42.0925 36.2577C41.1296 36.874 40.1496 37.4119 39.1525 37.872L39.9906 39.688ZM43.1557 37.9517C44.2249 37.2937 45.146 36.6463 45.9117 36.0082L44.6314 34.4718C43.9571 35.0337 43.1183 35.6263 42.1075 36.2483L43.1557 37.9517ZM45.9157 36.0049C46.6737 35.3666 47.287 34.7633 47.5857 34.2256L45.8374 33.2544C45.7361 33.4367 45.3894 33.8334 44.6274 34.4751L45.9157 36.0049ZM46.7116 34.74H54.9316V32.74H46.7116V34.74ZM53.9316 33.74V60.74H55.9316V33.74H53.9316ZM54.9316 61.74H62.5516V59.74H54.9316V61.74Z" fill="#AAAAAA"/>
<defs>
<filter id="filter0_d_16_299" x="0" y="6" width="97" height="97" filterUnits="userSpaceOnUse" color-interpolation-filters="sRGB">
<feFlood flood-opacity="0" result="BackgroundImageFix"/>
<feColorMatrix in="SourceAlpha" type="matrix" values="0 0 0 0 0 0 0 0 0 0 0 0 0 0 0 0 0 0 127 0" result="hardAlpha"/>
<feOffset dy="4"/>
<feGaussianBlur stdDeviation="2"/>
<feComposite in2="hardAlpha" operator="out"/>
<feColorMatrix type="matrix" values="0 0 0 0 0 0 0 0 0 0 0 0 0 0 0 0 0 0 0.25 0"/>
<feBlend mode="normal" in2="BackgroundImageFix" result="effect1_dropShadow_16_299"/>
<feBlend mode="normal" in="SourceGraphic" in2="effect1_dropShadow_16_299" result="shape"/>
</filter>
<filter id="filter1_i_16_299" x="36.9915" y="33.74" width="25.5601" height="38.26" filterUnits="userSpaceOnUse" color-interpolation-filters="sRGB">
<feFlood flood-opacity="0" result="BackgroundImageFix"/>
<feBlend mode="normal" in="SourceGraphic" in2="BackgroundImageFix" result="shape"/>
<feColorMatrix in="SourceAlpha" type="matrix" values="0 0 0 0 0 0 0 0 0 0 0 0 0 0 0 0 0 0 127 0" result="hardAlpha"/>
<feOffset dy="4"/>
<feGaussianBlur stdDeviation="2"/>
<feComposite in2="hardAlpha" operator="arithmetic" k2="-1" k3="1"/>
<feColorMatrix type="matrix" values="0 0 0 0 0 0 0 0 0 0 0 0 0 0 0 0 0 0 0.25 0"/>
<feBlend mode="normal" in2="shape" result="effect1_innerShadow_16_299"/>
</filter>
</defs>
</svg>
